<svg width="64" height="64" viewBox="0 0 64 64" fill="none" xmlns="http://www.w3.org/2000/svg">
<g clip-path="url(#clip0_3_479)">
<rect width="64" height="64" rx="15" fill="#380B0B"/>
<path d="M32 11.1667C43.4875 11.1667 52.8333 20.5125 52.8333 32C52.8333 43.4875 43.4875 52.8333 32 52.8333C20.5125 52.8333 11.1667 43.4875 11.1667 32C11.1667 20.5125 20.5125 11.1667 32 11.1667ZM32 7C18.1937 7 7 18.1937 7 32C7 45.8063 18.1937 57 32 57C45.8063 57 57 45.8063 57 32C57 18.1937 45.8063 7 32 7ZM32 33.1458L19.5167 23.625H44.4812L32 33.1458ZM32 35.8292L19.5 26.1854V40.2917H44.5V26.1854L32 35.8292Z" fill="#E22727"/>
</g>
<defs>
<clipPath id="clip0_3_479">
<rect width="64" height="64" fill="white"/>
</clipPath>
</defs>
</svg>
