<svg width="64" height="64" viewBox="0 0 64 64" fill="none" xmlns="http://www.w3.org/2000/svg">
<g clip-path="url(#clip0_3_477)">
<path fill-rule="evenodd" clip-rule="evenodd" d="M50.6667 64H13.3333C5.97067 64 0 58.0293 0 50.6667V13.3333C0 5.97067 5.97067 0 13.3333 0H50.6667C58.032 0 64 5.97067 64 13.3333V50.6667C64 58.0293 58.032 64 50.6667 64ZM32 12C20.2187 12 10.6667 20.8427 10.6667 31.752C10.6667 37.9707 13.768 43.5147 18.616 47.136V54.6667L25.88 50.68C27.8187 51.216 29.872 51.5067 32 51.5067C43.7813 51.5067 53.3333 42.6613 53.3333 31.752C53.3333 20.8427 43.7813 12 32 12ZM34.12 38.6L28.688 32.8053L18.088 38.6L29.7467 26.2213L35.312 32.016L45.7813 26.2213L34.12 38.6Z" fill="#380B0B"/>
</g>
<defs>
<clipPath id="clip0_3_477">
<rect width="64" height="64" fill="white"/>
</clipPath>
</defs>
</svg>
