<svg width="64" height="64" viewBox="0 0 64 64" fill="none" xmlns="http://www.w3.org/2000/svg">
<g clip-path="url(#clip0_3_473)">
<path d="M32.096 14.2373C22.4027 14.2373 14.52 22.12 14.5147 31.808C14.512 35.7627 15.672 38.7253 17.6187 41.824L15.8427 48.3093L22.4933 46.5653C25.472 48.3333 28.3173 49.3947 32.08 49.3947C41.7653 49.3947 49.656 41.512 49.6587 31.8213C49.6667 22.112 41.8133 14.24 32.096 14.2373ZM42.432 39.3653C41.992 40.6 39.88 41.7253 38.8667 41.8773C37.9573 42.0133 36.8053 42.0693 35.5387 41.6693C34.7707 41.4267 33.7867 41.1013 32.528 40.5573C27.2293 38.2693 23.768 32.9333 23.504 32.5813C23.24 32.2293 21.3467 29.7173 21.3467 27.1173C21.3467 24.5173 22.712 23.24 23.1947 22.7093C23.68 22.176 24.2507 22.0427 24.6027 22.0427L25.616 22.0613C25.9413 22.0773 26.376 21.9387 26.8053 22.968C27.2453 24.0267 28.3013 26.6267 28.4347 26.8907C28.5653 27.1547 28.656 27.464 28.4773 27.816C28.3013 28.168 28.2133 28.3893 27.9493 28.696L27.1573 29.6213C26.8933 29.8853 26.6187 30.1707 26.9253 30.6987C27.2347 31.2267 28.2933 32.9573 29.864 34.3573C31.8827 36.1573 33.584 36.7147 34.112 36.9787C34.64 37.2427 34.9493 37.2 35.256 36.8453C35.5653 36.4933 36.576 35.304 36.928 34.7733C37.28 34.2427 37.632 34.3333 38.1173 34.5093C38.6027 34.6853 41.2 35.9627 41.728 36.2293C42.256 36.4933 42.608 36.6267 42.7413 36.8453C42.872 37.072 42.872 38.1307 42.432 39.3653ZM50.6667 0H13.3333C5.97067 0 0 5.97067 0 13.3333V50.6667C0 58.0293 5.97067 64 13.3333 64H50.6667C58.032 64 64 58.0293 64 50.6667V13.3333C64 5.97067 58.032 0 50.6667 0ZM32.088 52.9653C28.5493 52.9653 25.064 52.0773 21.976 50.392L10.768 53.3333L13.768 42.3787C11.9173 39.1733 10.944 35.536 10.9467 31.808C10.952 20.1493 20.4347 10.6667 32.088 10.6667C37.744 10.6693 43.0533 12.872 47.0453 16.8667C51.0373 20.8613 53.2347 26.176 53.232 31.824C53.2267 43.4827 43.7413 52.9653 32.088 52.9653Z" fill="#380B0B"/>
</g>
<defs>
<clipPath id="clip0_3_473">
<rect width="64" height="64" fill="white"/>
</clipPath>
</defs>
</svg>
